<svg xmlns="http://www.w3.org/2000/svg" width="16" height="16"><path fill-rule="evenodd" d="M8 0a8 8 0 0 0-8 8c0 3.54 2.3 6.53 5.47 7.6.4.07.55-.17.55-.38L6 13.72c-2 .37-2.53-.5-2.7-.94-.1-.23-.48-.94-.82-1.13-.28-.15-.68-.52-.01-.53.63-.01 1.08.58 1.23.82.72 1.2 1.87.87 2.33.66.07-.52.28-.87.5-1.07-1.78-.2-3.64-.9-3.64-3.95 0-.87.3-1.6.82-2.15-.08-.2-.36-1.02.08-2.12 0 0 .67-.2 2.2.82.64-.18 1.32-.27 2-.27s1.36.1 2 .27c1.53-1.04 2.2-.82 2.2-.82.44 1.1.16 1.92.08 2.12.5.56.82 1.27.82 2.15 0 3.07-1.87 3.75-3.65 3.95.3.25.54.73.54 1.48v2.2c0 .2.15.46.55.38A8.013 8.013 0 0 0 16 8a8 8 0 0 0-8-8z"/></svg>