<svg xmlns="http://www.w3.org/2000/svg" width="64" height="64" shape-rendering="geometricPrecision" text-rendering="geometricPrecision" image-rendering="optimizeQuality" fill-rule="evenodd" clip-rule="evenodd" viewBox="0 0 640 640"><path d="M37.831.012l51.355 575.995 230.471 64.005 231.074-64.088L602.17-.012 37.867.012h-.036zm369.607 331.362l-8.161 91.595-78.887 21.284-78.674-21.19-5.032-56.41H165.77l9.886 110.967 145.04 40.122 144.605-40.122 19.394-216.888H227.212l-6.45-72.355h270.323l6.319-70.643H143.53l19.075 213.64h244.834zm99.273 207.912L320.957 590.77v.283l-.484-.165-.484.165v-.283l-185.754-51.485L90.32 47.138h460.305l-43.914 492.148z"/></svg>