<?xml version="1.0" encoding="UTF-8"?>
<!DOCTYPE svg  PUBLIC '-//W3C//DTD SVG 1.1 Tiny//EN'  'http://www.w3.org/Graphics/SVG/1.1/DTD/svg11-tiny.dtd'>
<svg baseProfile="tiny" version="1.1" viewBox="0 0 512 512" xml:space="preserve" xmlns="http://www.w3.org/2000/svg"><path d="m253.81 1.783c-20.678 0.098-40.426 1.859-57.803 4.935-51.187 9.044-60.48 27.97-60.48 62.877v46.103h120.96v15.366h-166.36c-35.155 0-65.937 21.13-75.563 61.325-11.107 46.075-11.603 74.83 0 122.94 8.599 35.808 29.13 61.324 64.286 61.324h41.589v-55.269c0-39.921 34.544-75.143 75.564-75.143h120.82c33.632 0 60.479-27.689 60.479-61.466v-115.18c0-32.776-27.653-57.406-60.479-62.877-20.779-3.46-42.341-5.033-63.018-4.934zm-65.415 37.077c12.494 0 22.699 10.37 22.699 23.12 0 12.705-10.205 22.982-22.699 22.982-12.542 0-22.699-10.277-22.699-22.982 0-12.75 10.157-23.12 22.699-23.12z"/><path d="m392.39 131.06v53.712c0 41.648-35.303 76.692-75.562 76.692h-120.82c-33.094 0-60.48 28.327-60.48 61.469v115.19c0 32.777 28.503 52.063 60.48 61.463 38.291 11.259 75.004 13.3 120.82 0 30.451-8.812 60.479-26.561 60.479-61.463v-46.105h-120.82v-15.364h181.3c35.157 0 48.26-24.519 60.482-61.324 12.629-37.895 12.093-74.335 0-122.94-8.687-34.993-25.281-61.325-60.482-61.325h-45.394zm-67.949 291.69c12.539 0 22.698 10.269 22.698 22.975 0 12.749-10.159 23.124-22.698 23.124-12.493 0-22.696-10.375-22.696-23.124-1e-3 -12.706 10.202-22.975 22.696-22.975z"/></svg>
