<svg xmlns="http://www.w3.org/2000/svg" viewBox="0 0 233 233"><path d="M4.89 150c14.393 48 58.916 83 111.6 83 64.34 0 116.5-52.16 116.5-116.5S180.84 0 116.5 0C54.76 0 4.24 48.03.25 108.76c7.54 12.66 10.48 20.5 4.64 41.25z"/><path fill="#fff" d="M110.5 87.322v.576L82.002 129.3c-4.618-.2-9.252.6-13.646 2.4a31.7 31.7 0 0 0-5.455 2.88l-62.6-25.77c0 0-1.45 23.83 4.588 41.6l44.254 18.26c2.222 9.93 9.034 18.64 19.084 22.83 16.443 6.87 35.402-.96 42.242-17.4 1.78-4.3 2.6-8.8 2.5-13.3l40.8-29.15 1 .02c24.4 0 44.25-19.9 44.25-44.338S179.16 43 154.75 43c-24.4 0-44.25 19.882-44.25 44.322zm-6.84 83.918c-5.294 12.7-19.9 18.74-32.596 13.45-5.857-2.44-10.28-6.9-12.83-12.24l14.405 5.97c9.363 3.9 20.105-.54 23.997-9.9 3.904-9.37-.525-20.13-9.883-24.03l-14.89-6.17c5.746-2.18 12.278-2.26 18.38.28 6.153 2.56 10.927 7.38 13.457 13.54s2.52 12.96-.04 19.1m51.1-54.38c-16.25 0-29.48-13.25-29.48-29.538 0-16.275 13.23-29.53 29.48-29.53 16.26 0 29.5 13.254 29.5 29.53 0 16.288-13.23 29.538-29.5 29.538m-22.1-29.583c0-12.253 9.92-22.19 22.14-22.19 12.23 0 22.15 9.938 22.15 22.19s-9.92 22.183-22.15 22.183c-12.22 0-22.14-9.93-22.14-22.183z"/></svg>